<?xml version="1.0" standalone="no"?>
<!DOCTYPE svg PUBLIC "-//W3C//DTD SVG 20010904//EN"
 "http://www.w3.org/TR/2001/REC-SVG-20010904/DTD/svg10.dtd">
<svg version="1.0" xmlns="http://www.w3.org/2000/svg"
 width="657.000000pt" height="373.000000pt" viewBox="0 0 657.000000 373.000000"
 preserveAspectRatio="xMidYMid meet">

<g transform="translate(0.000000,373.000000) scale(0.100000,-0.100000)"
fill="#000000" stroke="none">
<path d="M3010 3724 c-1505 -76 -2721 -716 -2965 -1561 -54 -187 -56 -392 -5
-588 28 -107 122 -299 201 -410 86 -120 278 -312 419 -417 538 -401 1279 -650
2170 -730 209 -18 761 -15 970 6 672 67 1195 210 1684 459 641 327 1022 779
1078 1278 22 201 -13 392 -111 594 -78 160 -161 275 -306 421 -504 507 -1368
844 -2390 934 -127 11 -618 20 -745 14z m556 -1519 c44 -44 44 -45 29 -74 -17
-34 -74 -81 -97 -81 -20 0 -98 78 -98 98 0 12 -8 8 -29 -12 -15 -15 -41 -30
-57 -35 -25 -6 -29 -13 -32 -49 l-3 -41 48 -3 48 -3 3 -54 c4 -62 -4 -71 -60
-71 l-38 0 0 -162 c0 -90 -4 -169 -9 -176 -5 -9 -29 -12 -82 -10 l-74 3 -3
173 -2 172 -28 0 c-38 0 -52 17 -52 61 0 57 8 69 46 69 34 0 34 0 34 48 1 107
62 174 166 180 59 4 62 3 96 -31 l36 -35 38 39 c21 21 46 39 56 39 10 0 39
-20 64 -45z m-1758 -27 c53 -25 75 -64 66 -116 -4 -20 -12 -40 -18 -45 -17
-11 -88 3 -115 24 -53 42 -141 11 -127 -45 5 -19 23 -31 83 -56 124 -51 162
-77 184 -123 50 -111 -5 -241 -120 -282 -57 -20 -190 -20 -239 1 -65 27 -92
61 -92 115 0 33 4 49 16 53 23 9 94 7 94 -2 0 -15 70 -42 107 -42 70 0 98 61
46 98 -16 10 -61 31 -101 47 -45 16 -87 41 -107 61 -67 66 -72 172 -13 257 55
78 228 106 336 55z m849 -180 c19 -21 21 -36 25 -165 3 -121 6 -144 22 -162
25 -27 64 -27 93 1 22 20 23 28 23 159 l0 137 40 36 c22 20 42 36 45 36 3 0
23 -16 45 -36 l40 -36 0 -203 c0 -112 -3 -210 -6 -219 -8 -22 -110 -22 -135 0
-15 14 -20 13 -50 -5 -47 -29 -160 -29 -207 -1 -59 36 -72 82 -72 263 0 172 6
194 59 221 29 16 45 10 78 -26z m1649 0 c20 -18 22 -18 65 2 97 44 204 17 250
-64 22 -37 24 -55 27 -199 2 -87 1 -170 -2 -183 -6 -24 -9 -25 -84 -22 l-77 3
-5 156 c-6 172 -11 189 -64 189 -66 0 -70 -11 -76 -187 l-5 -158 -75 0 -75 0
-3 208 c-1 135 1 215 8 228 14 25 70 60 84 52 6 -3 20 -14 32 -25z m-1970 -6
c55 -28 90 -72 109 -134 31 -105 9 -208 -59 -273 -51 -49 -99 -65 -198 -65
-124 0 -210 57 -238 159 -13 47 -13 136 1 185 14 51 80 121 132 140 62 23 199
16 253 -12z m1660 9 c48 -22 80 -60 94 -112 6 -21 9 -109 8 -196 l-3 -158 -61
-3 c-45 -2 -64 1 -73 12 -11 13 -17 13 -49 -4 -26 -14 -56 -20 -104 -20 -58 0
-71 4 -99 27 -59 50 -73 117 -40 189 25 55 99 92 198 101 61 5 70 8 66 23 -5
19 -43 40 -71 40 -9 0 -36 -9 -59 -19 -35 -16 -48 -18 -78 -8 -36 11 -37 12
-32 50 3 22 12 46 20 54 43 44 209 58 283 24z m1069 0 c75 -34 124 -121 111
-199 -11 -71 -57 -92 -203 -92 -51 0 -93 -4 -93 -8 0 -5 11 -19 25 -32 32 -30
117 -34 155 -7 45 31 120 13 120 -29 0 -47 -18 -70 -71 -93 -44 -20 -66 -22
-149 -19 -87 3 -102 6 -145 33 -70 43 -100 105 -100 205 0 126 49 210 140 244
57 21 161 20 210 -3z m-1490 -231 l0 -235 -75 0 -75 0 -3 225 c-1 123 0 230 3
238 3 9 24 12 77 10 l73 -3 0 -235z"/>
<path d="M2143 1866 c-24 -21 -28 -32 -31 -94 -4 -65 -2 -73 21 -96 36 -36 94
-36 127 -1 20 22 24 36 24 96 1 65 -1 73 -27 95 -36 31 -78 31 -114 0z"/>
<path d="M3843 1720 c-29 -12 -33 -69 -5 -72 54 -5 92 19 92 59 0 19 -5 23
-32 22 -18 0 -43 -4 -55 -9z"/>
<path d="M4902 1877 c-37 -39 -29 -47 48 -47 61 0 70 2 70 18 0 50 -80 70
-118 29z"/>
</g>
</svg>
